<svg width="13" height="17" viewBox="0 0 13 17" fill="none" xmlns="http://www.w3.org/2000/svg">
<g clip-path="url(#clip0_0_6)">
<path d="M1.11192 2.6765H11.5393C12.1524 2.6765 12.6512 3.34677 12.6512 4.17064V12.8294C12.6512 13.6533 12.1524 14.3236 11.5393 14.3236H1.11192C0.498813 14.3236 5.72205e-06 13.6533 5.72205e-06 12.8294V4.17064C5.72205e-06 3.34677 0.498813 2.6765 1.11192 2.6765ZM1.25704 3.67259L1.40545 3.83864L5.88443 8.85035C6.14007 9.13637 6.51115 9.13637 6.76675 8.85035L11.2457 3.83864L11.3941 3.67259H1.25704ZM11.9099 4.39171L8.26052 8.47513L11.9099 11.7388V4.39171ZM1.11192 13.3275H11.5393C11.7183 13.3275 11.8681 13.1559 11.9025 12.9287L7.66617 9.14015L7.24107 9.61582C6.97584 9.91259 6.65069 10.061 6.32556 10.061C6.00044 10.061 5.67531 9.91259 5.41006 9.61582L4.98496 9.14015L0.748697 12.9286C0.783043 13.1559 0.932832 13.3275 1.11192 13.3275ZM0.741284 11.7388L4.39065 8.47516L0.741284 4.39171V11.7388Z" fill="white"/>
</g>
<defs>
<clipPath id="clip0_0_6">
<rect width="12.6512" height="17" fill="white" transform="matrix(-1 0 0 1 12.6512 0)"/>
</clipPath>
</defs>
</svg>
