<svg width="160" height="155" viewBox="0 0 160 155" fill="none" xmlns="http://www.w3.org/2000/svg">
<path d="M127.816 77.2973C127.816 94.3874 118.188 109.317 103.908 117.296L119.991 144.212C143.899 130.85 160 105.885 160 77.2799H127.816V77.2973Z" fill="#57A357"/>
<path d="M103.89 117.296C96.8583 121.233 88.6906 123.498 79.982 123.498C71.2734 123.498 63.1058 121.233 56.074 117.296L39.9911 144.212C51.7648 150.797 65.4136 154.577 79.982 154.577C94.5504 154.577 108.199 150.797 119.973 144.212L103.89 117.296Z" fill="#57A357"/>
<path d="M32.1839 77.2973H0C0 105.903 16.101 130.867 40.009 144.229L56.0919 117.314C41.794 109.3 32.1839 94.3874 32.1839 77.2973Z" fill="#FF637D"/>
<path d="M40.009 10.3655C16.101 23.7275 0 48.6919 0 77.2973H32.1839C32.1839 60.2072 41.812 45.2774 56.0919 37.2985L40.009 10.3655Z" fill="#FF637D"/>
<path d="M79.9999 0C65.4315 0 51.7826 3.78037 40.0089 10.3655L56.0919 37.2811C63.1236 33.3439 71.2913 31.0792 79.9999 31.0792C88.7085 31.0792 96.8762 33.3439 103.908 37.2811L119.991 10.3655C108.217 3.78037 94.5683 0 79.9999 0Z" fill="#FF637D"/>
<path d="M119.991 10.3655L103.89 37.2811C118.188 45.2774 127.798 60.1898 127.798 77.2799H159.982C159.982 48.6919 143.899 23.7275 119.991 10.3655Z" fill="#FF637D"/>
</svg>
