<svg width="15" height="14" viewBox="0 0 15 14" fill="none" xmlns="http://www.w3.org/2000/svg">
<g clip-path="url(#clip0_2_103)">
<path d="M7.38589 4.78274L9.53314 6.78683L9.54336 6.68185C9.54336 5.6289 8.62653 4.77319 7.49837 4.77319L7.38589 4.78274Z" fill="white"/>
<path d="M7.49825 3.50075C9.37964 3.50075 10.9066 4.9259 10.9066 6.68186C10.9066 7.09222 10.818 7.4835 10.6646 7.84295L12.6585 9.70389C13.6878 8.90225 14.499 7.86523 15 6.68186C13.8173 3.88887 10.91 1.91022 7.49828 1.91022C6.54394 1.91022 5.63053 2.06926 4.78186 2.35556L6.25425 3.7266C6.63935 3.58664 7.05857 3.50075 7.49825 3.50075Z" fill="white"/>
<path d="M0.681653 1.76711L2.23584 3.21769L2.54601 3.50718C1.42127 4.3279 0.531697 5.41903 0 6.6819C1.17929 9.4749 4.08998 11.4535 7.49831 11.4535C8.55489 11.4535 9.56374 11.2627 10.4874 10.9159L10.7771 11.1863L12.7642 13.0441L13.6333 12.2361L1.55077 0.955933L0.681653 1.76711ZM4.45127 5.28223L5.50444 6.26519C5.47377 6.40199 5.45332 6.53875 5.45332 6.6819C5.45332 7.73486 6.37014 8.59056 7.49831 8.59056C7.65168 8.59056 7.79825 8.57147 7.9414 8.54284L8.99457 9.5258C8.54125 9.73575 8.03684 9.86301 7.49831 9.86301C5.61692 9.86301 4.08998 8.43787 4.08998 6.6819C4.08998 6.1793 4.22632 5.70849 4.45127 5.28223Z" fill="white"/>
</g>
<defs>
<clipPath id="clip0_2_103">
<rect width="15" height="14" fill="white"/>
</clipPath>
</defs>
</svg>
