<svg width="34" height="35" viewBox="0 0 34 35" fill="none" xmlns="http://www.w3.org/2000/svg">
<path d="M31.8765 17.4365C31.8765 16.206 31.7752 15.308 31.556 14.3768H17.3051V19.9309H25.6701C25.5015 21.3111 24.5908 23.3897 22.5669 24.7865L22.5385 24.9724L27.0444 28.4143L27.3566 28.445C30.2236 25.8342 31.8765 21.9929 31.8765 17.4365Z" fill="#4285F4"/>
<path d="M17.3041 32.0703C21.4023 32.0703 24.8427 30.7399 27.3557 28.4451L22.566 24.7866C21.2843 25.6679 19.564 26.2832 17.3041 26.2832C13.2903 26.2832 9.88359 23.6725 8.66919 20.064L8.49119 20.0789L3.80591 23.6542L3.74464 23.8221C6.24063 28.7111 11.3676 32.0703 17.3041 32.0703Z" fill="#34A853"/>
<path d="M8.67007 20.0641C8.34964 19.1329 8.1642 18.1351 8.1642 17.1041C8.1642 16.073 8.34964 15.0753 8.65321 14.1441L8.64472 13.9458L3.90072 10.3131L3.7455 10.3859C2.71678 12.4147 2.1265 14.6929 2.1265 17.1041C2.1265 19.5153 2.71678 21.7934 3.7455 23.8222L8.67007 20.0641Z" fill="#FBBC05"/>
<path d="M17.3042 7.92486C20.1544 7.92486 22.0769 9.13877 23.1732 10.1532L27.4569 6.02919C24.8261 3.61799 21.4024 2.138 17.3042 2.138C11.3676 2.138 6.24065 5.49704 3.74464 10.3859L8.65236 14.1441C9.88362 10.5356 13.2903 7.92486 17.3042 7.92486Z" fill="#EB4335"/>
</svg>
